<svg width="118" height="28" viewBox="0 0 118 28" fill="none" xmlns="http://www.w3.org/2000/svg">
<path d="M29.5487 1.13538C31.5201 1.13538 33.4084 1.13538 35.3671 1.13538C35.3671 3.69575 35.3671 6.21773 35.3671 8.61168C36.9546 8.33644 38.4844 7.87557 40.0206 7.83717C44.2964 7.73475 47.7529 9.4374 49.8845 13.2204C52.432 17.733 50.9598 23.1802 46.588 26.0927C41.0832 29.754 33.6005 27.9361 30.5024 22.1753C29.7663 20.8055 29.4975 19.3077 29.4911 17.7714C29.4718 12.4587 29.4846 7.14586 29.4846 1.83308C29.4846 1.60905 29.5231 1.38501 29.5487 1.13538ZM45.199 17.9891C45.2886 15.4671 43.0931 13.214 40.4559 13.1243C37.9019 13.0347 35.4759 15.1727 35.3863 17.5922C35.2839 20.3126 37.409 22.5593 40.1806 22.6554C42.8114 22.7386 45.103 20.6135 45.199 17.9891Z" fill="#0593A5"/>
<path d="M89.9989 8.85486C89.9989 6.21127 89.9989 3.6893 89.9989 1.14172C91.9704 1.14172 93.8587 1.14172 95.7662 1.14172C95.8046 1.27614 95.8558 1.37216 95.8558 1.46817C95.8558 7.0498 95.907 12.6314 95.8302 18.213C95.779 21.9576 93.8203 24.6396 90.6646 26.5023C85.6143 29.4787 78.7973 27.8401 75.6992 22.9241C72.3835 17.6626 75.0975 10.4935 81.172 8.458C84.0973 7.47866 86.9841 7.59388 89.9989 8.85486ZM85.0894 13.1179C82.497 13.1115 80.1223 15.3646 80.1415 17.8098C80.1607 20.4598 82.4266 22.6681 85.1022 22.6489C87.765 22.6297 89.9605 20.4726 89.9989 17.8354C90.0373 15.3838 87.6818 13.1243 85.0894 13.1179Z" fill="#0593A5"/>
<path d="M63.2756 7.75391C66.7833 7.89473 70.163 9.43736 72.2369 13.1179C74.6693 17.4321 73.5619 22.4569 69.6509 25.6061C64.3445 29.8692 56.1961 28.2433 52.9637 22.2777C50.5121 17.7586 52.3044 11.9273 56.9451 9.27733C58.7181 8.25958 60.6256 7.76031 63.2756 7.75391ZM62.7123 22.6297C65.4263 22.6041 67.6154 20.4278 67.609 17.7586C67.6026 15.2622 65.2983 13.0859 62.6675 13.0923C60.0431 13.0987 57.7708 15.2878 57.7836 17.8034C57.7964 20.479 60.0175 22.6553 62.7123 22.6297Z" fill="#0593A5"/>
<path d="M117.223 18.5075C112.313 18.5075 107.378 18.5075 102.366 18.5075C102.654 20.287 103.614 21.4199 105.074 22.1561C106.731 22.9882 108.223 22.6809 110.566 21.0743C111.59 22.5337 112.607 23.9931 113.625 25.4461C110.956 28.1217 105.266 29.0755 100.875 25.9774C96.8356 23.129 95.5042 17.701 97.8085 13.2139C100.119 8.72047 105.688 6.64656 110.681 8.43882C115.898 10.3143 117.773 15.3582 117.223 18.5075ZM110.47 14.8398C108.729 12.305 104.638 12.8107 103.633 14.8398C105.899 14.8398 108.172 14.8398 110.47 14.8398Z" fill="#0593A5"/>
<path d="M14.468 18.7507C11.4212 18.7507 8.38073 18.7571 5.33388 18.7507C4.19451 18.7507 3.88726 18.2258 4.43134 17.2336C5.28267 15.691 6.166 14.1676 7.00452 12.6185C7.28616 12.1001 7.66382 11.9272 8.2335 11.9272C12.4261 11.94 16.6187 11.94 20.8114 11.9272C21.3875 11.9272 21.7523 12.1193 22.0339 12.6314C22.8661 14.1548 23.7302 15.659 24.5751 17.1696C25.1512 18.2066 24.844 18.7507 23.679 18.7507C20.6129 18.7571 17.5405 18.7507 14.468 18.7507Z" fill="#F26B35"/>
<path d="M14.4745 10.9416C12.8743 10.9416 11.2677 10.948 9.66744 10.9416C8.51526 10.9352 8.19522 10.4103 8.7457 9.431C10.3843 6.52497 12.0294 3.61894 13.6808 0.725709C14.2313 -0.240834 14.8074 -0.240834 15.3579 0.719308C17.0093 3.61894 18.6544 6.51857 20.293 9.4246C20.8371 10.3911 20.4978 10.9352 19.3649 10.9416C17.7326 10.948 16.1004 10.9416 14.4745 10.9416Z" fill="#0593A5"/>
<path d="M0.603285 27.8721C0.462464 27.8721 0.328044 27.8209 0.212827 27.7249C-0.00480494 27.5392 -0.0624134 27.2448 0.0720064 26.9888L3.36209 20.767C3.62453 20.2742 4.13661 19.9669 4.69349 19.9669H9.475C9.75024 19.9669 9.98707 20.1333 10.0703 20.3958C10.1599 20.6582 10.0703 20.9335 9.85265 21.0999L0.961738 27.7505C0.852922 27.8337 0.731304 27.8721 0.603285 27.8721ZM4.69989 20.4726C4.32864 20.4726 3.98939 20.6774 3.81656 21.0039L0.526474 27.2256C0.50087 27.2768 0.520073 27.3152 0.545676 27.3344C0.57128 27.3536 0.609686 27.3728 0.654492 27.3408L9.54541 20.6902C9.60301 20.6454 9.59661 20.5878 9.58381 20.5622C9.57101 20.5302 9.54541 20.479 9.475 20.479H4.69989V20.4726Z" fill="#0593A5"/>
<path d="M28.9399 27.8721C28.8119 27.8721 28.6903 27.8337 28.5815 27.7505L19.6906 21.0935C19.4729 20.9271 19.3833 20.6519 19.4729 20.3894C19.5625 20.127 19.793 19.9606 20.0682 19.9606H24.8497C25.413 19.9606 25.9187 20.2678 26.1811 20.7607L29.4712 26.9824C29.6056 27.2384 29.548 27.5329 29.3304 27.7185C29.2152 27.8209 29.0807 27.8721 28.9399 27.8721ZM20.0618 20.4726C19.9914 20.4726 19.9594 20.5239 19.953 20.5559C19.9402 20.5879 19.9338 20.6455 19.9914 20.6839L28.8823 27.3345C28.9271 27.3665 28.9655 27.3537 28.9911 27.3281C29.0167 27.3089 29.0359 27.2705 29.0103 27.2192L25.7203 20.9975C25.5474 20.6711 25.2082 20.4662 24.8369 20.4662H20.0618V20.4726Z" fill="#0593A5"/>
</svg>
